<svg width="1200" height="630" viewBox="0 0 1200 630" fill="none" xmlns="http://www.w3.org/2000/svg">
  <!-- Background -->
  <rect width="1200" height="630" fill="#0f172a"/>
  
  <!-- Gradient background -->
  <defs>
    <linearGradient id="grad1" x1="0%" y1="0%" x2="100%" y2="100%">
      <stop offset="0%" style="stop-color:#22d3ee;stop-opacity:0.1" />
      <stop offset="100%" style="stop-color:#a855f7;stop-opacity:0.1" />
    </linearGradient>
  </defs>
  <rect width="1200" height="630" fill="url(#grad1)"/>
  
  <!-- Calculator Icon (simplified) -->
  <rect x="450" y="180" width="120" height="140" rx="12" fill="#22d3ee" opacity="0.8"/>
  <rect x="465" y="195" width="20" height="20" rx="4" fill="#0f172a"/>
  <rect x="495" y="195" width="20" height="20" rx="4" fill="#0f172a"/>
  <rect x="525" y="195" width="20" height="20" rx="4" fill="#0f172a"/>
  <rect x="555" y="195" width="20" height="20" rx="4" fill="#0f172a"/>
  
  <rect x="465" y="225" width="20" height="20" rx="4" fill="#0f172a"/>
  <rect x="495" y="225" width="20" height="20" rx="4" fill="#0f172a"/>
  <rect x="525" y="225" width="20" height="20" rx="4" fill="#0f172a"/>
  <rect x="555" y="225" width="35" height="50" rx="4" fill="#a855f7"/>
  
  <rect x="465" y="255" width="20" height="20" rx="4" fill="#0f172a"/>
  <rect x="495" y="255" width="20" height="20" rx="4" fill="#0f172a"/>
  <rect x="525" y="255" width="20" height="20" rx="4" fill="#0f172a"/>
  
  <rect x="465" y="285" width="50" height="20" rx="4" fill="#22d3ee"/>
  <rect x="525" y="285" width="20" height="20" rx="4" fill="#0f172a"/>
  
  <!-- Title -->
  <text x="600" y="280" font-family="Arial, sans-serif" font-size="72" font-weight="bold" fill="#ffffff">
    SplitEasy
  </text>
  
  <!-- Subtitle -->
  <text x="600" y="330" font-family="Arial, sans-serif" font-size="32" fill="#94a3b8">
    Split Expenses with Friends
  </text>
  
  <!-- Features -->
  <text x="600" y="380" font-family="Arial, sans-serif" font-size="24" fill="#22d3ee">
    ✓ No accounts required
  </text>
  <text x="600" y="410" font-family="Arial, sans-serif" font-size="24" fill="#22d3ee">
    ✓ Track group expenses
  </text>
  <text x="600" y="440" font-family="Arial, sans-serif" font-size="24" fill="#22d3ee">
    ✓ Export to Excel & PDF
  </text>
  
  <!-- Bottom branding -->
  <text x="600" y="520" font-family="Arial, sans-serif" font-size="20" fill="#64748b">
    split-easy-nine.vercel.app
  </text>
</svg>
